<svg width="222" height="51" viewBox="0 0 222 51" fill="none" xmlns="http://www.w3.org/2000/svg">
<path d="M69.7557 41.8404C67.5123 41.8404 65.752 41.549 64.4748 40.966C63.3216 40.493 62.3564 39.6545 61.7279 38.5799C61.1566 37.5132 60.8744 36.316 60.9091 35.107C60.9508 33.6957 61.1443 32.293 61.4863 30.9231L67.5001 9.63586L74.8402 8.5L68.2369 31.9159C68.12 32.4289 68.0488 32.9512 68.0241 33.4767C68.0001 33.9092 68.0905 34.3403 68.2861 34.727C68.5071 35.1178 68.851 35.4251 69.2645 35.6013C69.8731 35.8519 70.5222 35.9903 71.1803 36.0099L69.7557 41.8404Z" fill="#00274C"/>
<path d="M95.8718 30.6616C95.4309 32.429 95.3034 34.2599 95.4952 36.0712C95.6449 37.7125 96.0068 39.3276 96.5719 40.8762L90.2716 41.7751C90.0833 41.3992 89.9113 41.0355 89.7517 40.6882C89.592 40.3409 89.4365 39.9487 89.2768 39.5074C88.386 40.2367 87.3999 40.8415 86.3457 41.3052C85.2085 41.7879 83.9829 42.0287 82.7473 42.012C81.3515 42.0519 79.9652 41.7723 78.6944 41.1949C77.6183 40.6787 76.6788 39.9173 75.9516 38.9722C75.2188 37.9999 74.6948 36.8871 74.4124 35.7035C73.5962 32.3339 73.8363 28.7955 75.1001 25.5665C75.8384 23.6977 76.9309 21.9886 78.3178 20.5328C79.7025 19.1067 81.3551 17.9668 83.1812 17.1783C85.0924 16.3506 87.1566 15.933 89.24 15.9526C89.5224 15.9526 90.0219 15.9526 90.7301 15.9975C91.4383 16.0424 92.253 16.0997 93.1863 16.21C94.1595 16.3347 95.1246 16.5162 96.0765 16.7534H96.1052C96.8898 16.9612 97.5613 17.468 97.9755 18.1648C98.3896 18.8617 98.5133 19.6928 98.3199 20.4797L95.8718 30.6616ZM90.9593 21.9669C90.55 21.9015 90.1815 21.8566 89.8499 21.8239C89.5183 21.7912 89.1745 21.779 88.7446 21.7749C87.6658 21.7655 86.6033 22.0373 85.662 22.5634C84.7174 23.1088 83.8842 23.8268 83.2058 24.6799C82.491 25.5795 81.9371 26.5955 81.5683 27.683C81.1713 28.8219 80.9706 30.0196 80.9747 31.2254C80.9146 32.4689 81.1754 33.7069 81.732 34.8209C82.2355 35.7035 83.1689 36.1407 84.5239 36.1407C85.2018 36.158 85.8744 36.0181 86.489 35.7321C87.1862 35.3667 87.8183 34.8891 88.3598 34.3184C88.4212 33.5298 88.5276 32.6841 88.6668 31.8342C88.806 30.9844 88.9616 30.1713 89.1171 29.4481L90.9593 21.9669Z" fill="#00274C"/>
<path d="M104.88 17.644C105.416 17.4887 106.01 17.3048 106.656 17.1005C107.303 16.8963 108.028 16.692 108.834 16.5326C109.641 16.3733 110.537 16.218 111.532 16.124C112.657 16.008 113.787 15.9534 114.918 15.9606C118.643 15.9606 121.199 17.0311 122.585 19.1721C123.972 21.313 124.21 24.2371 123.302 27.9444L120.084 41.3663H113.018L116.146 28.2304C116.334 27.4132 116.481 26.6165 116.596 25.8442C116.709 25.1672 116.701 24.4754 116.571 23.8013C116.457 23.2413 116.146 22.7403 115.695 22.3876C115.073 21.9763 114.331 21.7836 113.587 21.8401C112.649 21.8439 111.714 21.9397 110.795 22.1261L106.202 41.3663H99.1484L104.88 17.644Z" fill="#00274C"/>
<path d="M124.044 31.4419C124.03 29.3808 124.382 27.3335 125.083 25.3948C125.745 23.5667 126.758 21.8857 128.068 20.4469C129.386 19.0117 130.991 17.8676 132.78 17.0883C134.729 16.2503 136.834 15.8326 138.957 15.8626C140.239 15.8508 141.518 15.9879 142.768 16.2712C143.823 16.5141 144.848 16.8703 145.826 17.3335L143.411 22.8167C142.775 22.5634 142.12 22.3346 141.446 22.1303C140.635 21.9091 139.797 21.8059 138.957 21.8238C136.591 21.8238 134.73 22.6192 133.373 24.21C132.017 25.8007 131.334 27.9662 131.326 30.7064C131.262 32.0823 131.626 33.4442 132.37 34.6043C133.063 35.5958 134.342 36.0929 136.206 36.0956C137.097 36.0988 137.985 36.0029 138.855 35.8096C139.633 35.6436 140.395 35.407 141.131 35.1028L141.651 40.7249C140.699 41.0931 139.726 41.4015 138.736 41.6483C137.472 41.94 136.177 42.0772 134.88 42.0569C133.182 42.104 131.491 41.8151 129.906 41.207C128.632 40.6954 127.485 39.9133 126.545 38.9149C125.656 37.949 125.001 36.7932 124.629 35.5359C124.229 34.2084 124.031 32.8282 124.044 31.4419Z" fill="#00274C"/>
<path d="M142.973 31.634C142.968 29.6327 143.329 27.6473 144.037 25.7749C144.721 23.9264 145.741 22.2198 147.046 20.7412C148.362 19.2527 149.963 18.0414 151.754 17.1783C153.67 16.2648 155.771 15.8048 157.894 15.8341C158.937 15.8304 159.974 15.9946 160.965 16.3203C161.872 16.6167 162.715 17.0811 163.45 17.6891C164.158 18.2909 164.724 19.0415 165.108 19.8872C165.513 20.8186 165.714 21.8259 165.697 22.8413C165.749 24.4223 165.337 25.9841 164.514 27.3357C163.693 28.5955 162.566 29.6283 161.239 30.3388C159.675 31.1646 157.987 31.7304 156.241 32.014C154.161 32.3736 152.054 32.5473 149.944 32.5329C150.165 33.8567 150.647 34.7951 151.389 35.348C152.13 35.8955 153.305 36.1652 154.914 36.1652C155.946 36.1642 156.976 36.0767 157.993 35.9037C158.994 35.742 159.977 35.4819 160.928 35.1274L161.448 40.6555C160.348 41.0643 159.215 41.38 158.062 41.5994C156.59 41.8862 155.092 42.0231 153.592 42.008C151.905 42.0563 150.224 41.7788 148.643 41.1908C147.419 40.7255 146.322 39.981 145.438 39.0169C144.555 38.0527 143.909 36.8957 143.554 35.6381C143.165 34.339 142.969 32.9899 142.973 31.634ZM156.748 21.4194C155.963 21.4149 155.184 21.5652 154.457 21.8618C153.73 22.1584 153.069 22.5954 152.511 23.1477C151.253 24.3781 150.416 25.974 150.12 27.7075C151.711 27.6838 153.296 27.517 154.857 27.209C155.83 27.0239 156.77 26.6977 157.649 26.2407C158.201 25.9689 158.661 25.5431 158.975 25.015C159.191 24.6147 159.312 24.17 159.327 23.7157C159.327 22.1876 158.468 21.4235 156.748 21.4235V21.4194Z" fill="#00274C"/>
<path d="M181.919 22.543L180.044 22.1099C179.146 21.9452 178.234 21.874 177.322 21.8975C176.83 21.9022 176.338 21.9418 175.852 22.016C175.407 22.0755 174.965 22.1614 174.53 22.2734L170.972 37.0518C170.677 38.2811 169.976 39.3752 168.981 40.158C167.987 40.9407 166.757 41.3664 165.491 41.3665H162.879L168.561 17.8321C169.92 17.3949 171.427 16.974 173.13 16.5818C175.003 16.1668 176.918 15.968 178.836 15.9894C179.716 15.9978 180.595 16.0688 181.465 16.2018C182.335 16.32 183.187 16.5507 183.999 16.8882L181.919 22.543Z" fill="#00274C"/>
<path d="M46.3393 10.8778L53.6794 9.74194L52.0009 16.6879L50.5927 22.4898L48.4148 31.5235C48.236 32.1927 48.1168 32.8763 48.0587 33.5665C48.0013 34.1224 48.0829 34.6839 48.2961 35.2008C48.5141 35.6706 48.893 36.0473 49.3646 36.2631C50.0205 36.5433 50.7314 36.6718 51.4442 36.639C52.1836 36.6416 52.9214 36.5704 53.6466 36.4265C54.3766 36.278 55.0959 36.0814 55.7999 35.8382L56.3198 41.2233C55.3149 41.5869 54.2881 41.8871 53.2454 42.1222C51.9532 42.3908 50.6353 42.5169 49.3154 42.4981C47.1321 42.4981 45.4427 42.1753 44.2474 41.5298C43.1209 40.9609 42.2195 40.0295 41.6888 38.8862C41.1621 37.6703 40.932 36.347 41.0174 35.0251C41.0932 33.4798 41.3139 31.945 41.6765 30.4408L46.3393 10.8778Z" fill="#8A7CEE"/>
<path d="M62.2858 16.0139L54.172 15.9199L52.3789 23.2662L59.0108 23.1927L62.2858 16.0139Z" fill="#7869E6"/>
</svg>
