<svg width="32" height="69" viewBox="0 0 32 69" fill="none" xmlns="http://www.w3.org/2000/svg">
<path d="M15.9987 47.6666C17.4654 47.6666 18.6654 46.4666 18.6654 44.9999C18.6654 43.5333 17.4654 42.3333 15.9987 42.3333C14.532 42.3333 13.332 43.5333 13.332 44.9999C13.332 46.4666 14.532 47.6666 15.9987 47.6666ZM15.9987 50.3333C14.532 50.3333 13.332 51.5333 13.332 52.9999C13.332 54.4666 14.532 55.6666 15.9987 55.6666C17.4654 55.6666 18.6654 54.4666 18.6654 52.9999C18.6654 51.5333 17.4654 50.3333 15.9987 50.3333ZM15.9987 58.3333C14.532 58.3333 13.332 59.5333 13.332 60.9999C13.332 62.4666 14.532 63.6666 15.9987 63.6666C17.4654 63.6666 18.6654 62.4666 18.6654 60.9999C18.6654 59.5333 17.4654 58.3333 15.9987 58.3333Z" fill="#333333"/>
</svg>
