<svg width="74" height="43" viewBox="0 0 74 43" fill="none" xmlns="http://www.w3.org/2000/svg">
<ellipse cx="10.9664" cy="26.7653" rx="10.275" ry="10.0918" fill="#7869E6"/>
<path d="M9.06756 29.3759L6.40947 26.7652L5.52344 27.6355L9.06756 31.1164L16.6621 23.6572L15.7761 22.787L9.06756 29.3759Z" fill="white"/>
<g clip-path="url(#clip0_3601_1650)">
<circle cx="40.2676" cy="26.7653" r="10.0918" fill="#ED4C5C"/>
<path d="M44.9115 30.5218C44.9699 30.58 45.0163 30.6492 45.0479 30.7254C45.0795 30.8016 45.0958 30.8832 45.0958 30.9657C45.0958 31.0482 45.0795 31.1299 45.0479 31.2061C45.0163 31.2823 44.9699 31.3515 44.9115 31.4097C44.7933 31.5265 44.6338 31.5919 44.4677 31.5919C44.3015 31.5919 44.1421 31.5265 44.0238 31.4097L40.7081 28.093L37.3923 31.4097C37.2741 31.5265 37.1146 31.5919 36.9485 31.5919C36.7823 31.5919 36.6229 31.5265 36.5046 31.4097C36.4462 31.3515 36.3998 31.2823 36.3682 31.2061C36.3366 31.1299 36.3203 31.0482 36.3203 30.9657C36.3203 30.8832 36.3366 30.8016 36.3682 30.7254C36.3998 30.6492 36.4462 30.58 36.5046 30.5218L39.8204 27.205L36.5046 23.8883C36.3869 23.7705 36.3208 23.6108 36.3208 23.4443C36.3208 23.3618 36.337 23.2802 36.3685 23.204C36.4001 23.1278 36.4463 23.0586 36.5046 23.0003C36.5629 22.942 36.6321 22.8958 36.7082 22.8642C36.7844 22.8326 36.866 22.8164 36.9485 22.8164C37.1149 22.8164 37.2746 22.8826 37.3923 23.0003L40.7081 26.3171L44.0238 23.0003C44.1416 22.8826 44.3012 22.8164 44.4677 22.8164C44.6342 22.8164 44.7938 22.8826 44.9115 23.0003C45.0292 23.1181 45.0954 23.2778 45.0954 23.4443C45.0954 23.6108 45.0292 23.7705 44.9115 23.8883L41.5958 27.205L44.9115 30.5218Z" fill="white"/>
</g>
<defs>
<clipPath id="clip0_3601_1650">
<rect width="43.7804" height="43" fill="white" transform="translate(30.1758)"/>
</clipPath>
</defs>
</svg>
