<svg width="27" height="27" viewBox="0 0 27 27" fill="none" xmlns="http://www.w3.org/2000/svg">
<path d="M18.1764 6.4071C18.1764 6.4071 18.733 6.95271 18.1764 6.4071C17.4305 5.55553 17.0194 4.46191 17.0197 3.32983H13.6478V16.8611C13.6218 17.5933 13.3127 18.2869 12.7855 18.7957C12.2583 19.3046 11.5543 19.589 10.8216 19.5891C9.27202 19.5891 7.98437 18.3233 7.98437 16.7519C7.98437 14.875 9.79581 13.4673 11.6618 14.0457V10.5974C7.89707 10.0954 4.60156 13.0199 4.60156 16.7519C4.60156 20.3857 7.61335 22.9719 10.8107 22.9719C14.2371 22.9719 17.0197 20.1893 17.0197 16.7519V9.88811C18.387 10.8701 20.0287 11.3969 21.712 11.394V8.02211C21.712 8.02211 19.6605 8.12033 18.1764 6.4071Z" fill="white"/>
</svg>
