<svg width="27" height="27" viewBox="0 0 27 27" fill="none" xmlns="http://www.w3.org/2000/svg">
<path d="M21.2797 5.87204C19.8284 5.19548 18.257 4.70442 16.6202 4.4207C16.6059 4.42025 16.5916 4.42294 16.5784 4.42859C16.5652 4.43425 16.5534 4.44273 16.5438 4.45344C16.3474 4.81355 16.1182 5.28277 15.9655 5.64288C14.2293 5.38099 12.4637 5.38099 10.7276 5.64288C10.5748 5.27186 10.3456 4.81355 10.1383 4.45344C10.1274 4.43162 10.0947 4.4207 10.0619 4.4207C8.42508 4.70442 6.86462 5.19548 5.40238 5.87204C5.39146 5.87204 5.38055 5.88295 5.36964 5.89386C2.4015 10.3352 1.58308 14.6564 1.98683 18.934C1.98683 18.9559 1.99774 18.9777 2.01957 18.9886C3.98378 20.429 5.8716 21.302 7.7376 21.8804C7.77034 21.8913 7.80308 21.8804 7.81399 21.8585C8.25048 21.2584 8.64332 20.6254 8.9816 19.9598C9.00343 19.9161 8.9816 19.8725 8.93796 19.8616C8.31596 19.6215 7.72669 19.3378 7.14834 19.0104C7.10469 18.9886 7.10469 18.9231 7.13743 18.8904C7.25746 18.8031 7.3775 18.7049 7.49753 18.6176C7.51936 18.5958 7.5521 18.5958 7.57392 18.6067C11.3277 20.3199 15.3762 20.3199 19.0864 18.6067C19.1082 18.5958 19.1409 18.5958 19.1628 18.6176C19.2828 18.7158 19.4028 18.8031 19.5229 18.9013C19.5665 18.934 19.5665 18.9995 19.512 19.0213C18.9445 19.3596 18.3443 19.6324 17.7223 19.8725C17.6787 19.8834 17.6678 19.938 17.6787 19.9707C18.0279 20.6364 18.4207 21.2693 18.8463 21.8694C18.879 21.8804 18.9118 21.8913 18.9445 21.8804C20.8214 21.302 22.7093 20.429 24.6735 18.9886C24.6953 18.9777 24.7062 18.9559 24.7062 18.934C25.1863 13.9908 23.9096 9.70225 21.3234 5.89386C21.3125 5.88295 21.3016 5.87204 21.2797 5.87204ZM9.54904 16.326C8.42508 16.326 7.48662 15.2893 7.48662 14.0126C7.48662 12.7359 8.40325 11.6992 9.54904 11.6992C10.7057 11.6992 11.6224 12.7468 11.6115 14.0126C11.6115 15.2893 10.6948 16.326 9.54904 16.326ZM17.1549 16.326C16.0309 16.326 15.0925 15.2893 15.0925 14.0126C15.0925 12.7359 16.0091 11.6992 17.1549 11.6992C18.3116 11.6992 19.2282 12.7468 19.2173 14.0126C19.2173 15.2893 18.3116 16.326 17.1549 16.326Z" fill="white"/>
</svg>
