<svg width="129" height="32" viewBox="0 0 129 32" fill="none" xmlns="http://www.w3.org/2000/svg">
<path d="M26.3932 30.8352C24.3902 30.8352 22.8186 30.5733 21.6782 30.0494C20.6487 29.6243 19.7869 28.8708 19.2257 27.9051C18.7157 26.9465 18.4637 25.8706 18.4947 24.7841C18.532 23.5159 18.7047 22.2553 19.0101 21.0242L24.3793 1.89429L30.9327 0.873535L25.0372 21.9165C24.9328 22.3775 24.8692 22.8468 24.8471 23.3191C24.8258 23.7077 24.9064 24.0952 25.081 24.4426C25.2784 24.7938 25.5854 25.07 25.9546 25.2284C26.498 25.4535 27.0776 25.5779 27.6651 25.5956L26.3932 30.8352Z" fill="white"/>
<path d="M49.7124 20.7893C49.3187 22.3776 49.2049 24.0229 49.3761 25.6507C49.5098 27.1257 49.8329 28.5771 50.3374 29.9687L44.7123 30.7765C44.5442 30.4387 44.3907 30.1119 44.2482 29.7998C44.1056 29.4877 43.9667 29.1352 43.8242 28.7387C43.0289 29.394 42.1485 29.9375 41.2072 30.3542C40.1919 30.7881 39.0977 31.0044 37.9945 30.9895C36.7483 31.0253 35.5106 30.774 34.376 30.2551C33.4152 29.7913 32.5764 29.107 31.9272 28.2577C31.2729 27.3839 30.805 26.3839 30.5529 25.3202C29.8242 22.2922 30.0385 19.1123 31.1669 16.2106C31.8261 14.5312 32.8015 12.9952 34.0398 11.687C35.276 10.4054 36.7515 9.38102 38.3819 8.67244C40.0883 7.92858 41.9312 7.5533 43.7913 7.5709C44.0435 7.5709 44.4894 7.5709 45.1217 7.61129C45.754 7.65168 46.4814 7.70309 47.3147 7.80223C48.1836 7.91433 49.0452 8.07739 49.8951 8.29057H49.9207C50.6212 8.47735 51.2208 8.9328 51.5905 9.55899C51.9603 10.1852 52.0707 10.9321 51.8981 11.6392L49.7124 20.7893ZM45.3264 12.9758C44.9609 12.917 44.6319 12.8766 44.3359 12.8472C44.0398 12.8179 43.7328 12.8068 43.349 12.8032C42.3859 12.7947 41.4372 13.039 40.5968 13.5118C39.7535 14.002 39.0095 14.6472 38.4038 15.4138C37.7657 16.2223 37.2711 17.1352 36.9418 18.1126C36.5874 19.136 36.4082 20.2124 36.4118 21.296C36.3582 22.4134 36.5911 23.526 37.088 24.5271C37.5376 25.3202 38.3709 25.7131 39.5807 25.7131C40.1859 25.7287 40.7865 25.603 41.3351 25.3459C41.9576 25.0176 42.522 24.5883 43.0055 24.0755C43.0603 23.3669 43.1553 22.6068 43.2796 21.8431C43.4039 21.0793 43.5427 20.3487 43.6816 19.6988L45.3264 12.9758Z" fill="white"/>
<path d="M57.7537 9.09098C58.2325 8.95145 58.7625 8.78622 59.34 8.60263C59.9175 8.41904 60.5644 8.23546 61.2844 8.09226C62.0045 7.94906 62.8049 7.80953 63.6931 7.72508C64.6972 7.62077 65.7063 7.57173 66.7158 7.5782C70.0418 7.5782 72.3238 8.54021 73.5616 10.4642C74.7994 12.3882 75.0126 15.016 74.2012 18.3475L71.3284 30.4093H65.0199L67.8123 18.6045C67.9804 17.8702 68.112 17.1542 68.2143 16.4602C68.3154 15.8518 68.308 15.2301 68.1924 14.6243C68.0898 14.1211 67.8126 13.6708 67.4102 13.3539C66.8547 12.9842 66.1923 12.8111 65.5279 12.8619C64.6906 12.8653 63.8557 12.9513 63.0352 13.1189L58.9343 30.4093H52.6367L57.7537 9.09098Z" fill="white"/>
<path d="M74.8599 21.4908C74.8479 19.6386 75.1622 17.7988 75.7882 16.0566C76.3786 14.4137 77.2838 12.9031 78.4527 11.6101C79.6301 10.3203 81.0631 9.29221 82.6596 8.5919C84.4004 7.83876 86.2799 7.46339 88.175 7.49037C89.3196 7.47979 90.4616 7.60301 91.5778 7.85755C92.5196 8.07584 93.435 8.39592 94.3081 8.81221L92.1517 13.7397C91.5839 13.5121 90.9991 13.3065 90.3973 13.1229C89.6736 12.9241 88.9251 12.8314 88.175 12.8475C86.0624 12.8475 84.4006 13.5623 83.1896 14.9918C81.9786 16.4213 81.3694 18.3674 81.3621 20.8299C81.3043 22.0663 81.6299 23.2903 82.2941 24.3328C82.913 25.2238 84.0546 25.6705 85.7189 25.673C86.5142 25.6758 87.3073 25.5896 88.0836 25.416C88.7788 25.2667 89.4591 25.0541 90.1158 24.7807L90.58 29.8331C89.7306 30.164 88.8615 30.4411 87.9776 30.6629C86.849 30.9251 85.6929 31.0484 84.5346 31.0301C83.0187 31.0724 81.5094 30.8128 80.0938 30.2664C78.9566 29.8066 77.9327 29.1037 77.0931 28.2065C76.2999 27.3385 75.7149 26.2999 75.3825 25.1699C75.0251 23.977 74.8489 22.7366 74.8599 21.4908Z" fill="white"/>
<path d="M91.7618 21.6635C91.7578 19.865 92.0798 18.0808 92.7121 16.3982C93.3225 14.737 94.2333 13.2034 95.3985 11.8746C96.5735 10.5369 98.0025 9.4484 99.6017 8.67282C101.312 7.8519 103.189 7.43851 105.084 7.4648C106.015 7.46149 106.941 7.60903 107.825 7.90175C108.635 8.16813 109.388 8.58543 110.044 9.13179C110.676 9.67266 111.182 10.3472 111.524 11.1072C111.886 11.9442 112.066 12.8494 112.051 13.7619C112.097 15.1827 111.73 16.5862 110.994 17.8008C110.261 18.933 109.255 19.8611 108.07 20.4996C106.674 21.2417 105.167 21.7502 103.608 22.005C101.751 22.3282 99.8701 22.4842 97.9862 22.4713C98.1836 23.661 98.6137 24.5043 99.2764 25.0012C99.938 25.4932 100.987 25.7355 102.423 25.7355C103.345 25.7347 104.264 25.6561 105.172 25.5005C106.066 25.3552 106.944 25.1215 107.793 24.8029L108.257 29.7708C107.275 30.1382 106.264 30.4219 105.234 30.619C103.919 30.8768 102.582 30.9998 101.243 30.9862C99.7365 31.0297 98.2361 30.7803 96.8239 30.2518C95.7317 29.8337 94.752 29.1647 93.9632 28.2982C93.1743 27.4318 92.5981 26.392 92.2808 25.2619C91.9334 24.0944 91.7585 22.882 91.7618 21.6635ZM104.061 12.4841C103.36 12.48 102.664 12.6151 102.015 12.8817C101.366 13.1482 100.776 13.5409 100.278 14.0373C99.1542 15.1429 98.4071 16.5772 98.1434 18.135C99.5635 18.1136 100.979 17.9637 102.372 17.687C103.241 17.5207 104.081 17.2275 104.865 16.8168C105.358 16.5726 105.769 16.1899 106.049 15.7153C106.242 15.3556 106.35 14.956 106.363 14.5477C106.363 13.1744 105.596 12.4878 104.061 12.4878V12.4841Z" fill="white"/>
<path d="M126.535 13.4935L124.861 13.1043C124.059 12.9563 123.245 12.8923 122.43 12.9133C121.991 12.9176 121.552 12.9531 121.118 13.0198C120.72 13.0733 120.326 13.1505 119.937 13.2511L116.761 26.5319C116.498 27.6366 115.871 28.6198 114.983 29.3233C114.096 30.0267 112.998 30.4093 111.867 30.4093H109.535L114.608 9.25991C115.822 8.86703 117.167 8.48884 118.687 8.13635C120.36 7.76337 122.069 7.58472 123.782 7.60394C124.568 7.61155 125.352 7.67535 126.129 7.79487C126.906 7.90107 127.667 8.10844 128.391 8.41173L126.535 13.4935Z" fill="white"/>
<path d="M5.48578 3.01074L12.0392 1.98999L10.5406 8.232L9.28332 13.4459L7.33886 21.5642C7.1792 22.1655 7.07279 22.7799 7.02088 23.4001C6.96968 23.8997 7.04252 24.4043 7.23287 24.8688C7.42752 25.291 7.76581 25.6295 8.18682 25.8235C8.77247 26.0752 9.40721 26.1907 10.0436 26.1613C10.7037 26.1636 11.3625 26.0996 12.01 25.9703C12.6617 25.8368 13.3039 25.6602 13.9325 25.4416L14.3967 30.281C13.4994 30.6077 12.5827 30.8775 11.6518 31.0888C10.498 31.3302 9.32135 31.4435 8.14296 31.4266C6.19363 31.4266 4.68533 31.1365 3.61807 30.5564C2.61232 30.0451 1.80752 29.2082 1.3337 28.1807C0.863446 27.0881 0.658012 25.8989 0.734278 24.7109C0.802004 23.3222 0.999015 21.943 1.32273 20.5912L5.48578 3.01074Z" fill="white"/>
<path d="M19.7201 7.62619L12.4759 7.54175L10.875 14.1436L16.7961 14.0775L19.7201 7.62619Z" fill="white"/>
</svg>
