<svg width="28" height="27" viewBox="0 0 28 27" fill="none" xmlns="http://www.w3.org/2000/svg">
<path d="M9.38381 2.23853H18.5501C22.0421 2.23853 24.8792 5.07572 24.8792 8.56765V17.734C24.8792 19.4126 24.2124 21.0224 23.0255 22.2093C21.8386 23.3963 20.2287 24.0631 18.5501 24.0631H9.38381C5.89188 24.0631 3.05469 21.2259 3.05469 17.734V8.56765C3.05469 6.88906 3.7215 5.27922 4.90844 4.09228C6.09539 2.90534 7.70522 2.23853 9.38381 2.23853ZM9.16557 4.42098C8.12368 4.42098 7.12447 4.83487 6.38775 5.57159C5.65103 6.30831 5.23714 7.30752 5.23714 8.3494V17.9522C5.23714 20.1238 6.99402 21.8806 9.16557 21.8806H18.7684C19.8103 21.8806 20.8095 21.4667 21.5462 20.73C22.2829 19.9933 22.6968 18.9941 22.6968 17.9522V8.3494C22.6968 6.17786 20.9399 4.42098 18.7684 4.42098H9.16557ZM19.6959 6.05782C20.0577 6.05782 20.4046 6.20153 20.6604 6.45734C20.9162 6.71315 21.06 7.06009 21.06 7.42186C21.06 7.78362 20.9162 8.13057 20.6604 8.38638C20.4046 8.64218 20.0577 8.78589 19.6959 8.78589C19.3342 8.78589 18.9872 8.64218 18.7314 8.38638C18.4756 8.13057 18.3319 7.78362 18.3319 7.42186C18.3319 7.06009 18.4756 6.71315 18.7314 6.45734C18.9872 6.20153 19.3342 6.05782 19.6959 6.05782ZM13.967 7.69467C15.414 7.69467 16.8018 8.26951 17.825 9.29273C18.8483 10.316 19.4231 11.7037 19.4231 13.1508C19.4231 14.5979 18.8483 15.9857 17.825 17.0089C16.8018 18.0321 15.414 18.6069 13.967 18.6069C12.5199 18.6069 11.1321 18.0321 10.1089 17.0089C9.08567 15.9857 8.51083 14.5979 8.51083 13.1508C8.51083 11.7037 9.08567 10.316 10.1089 9.29273C11.1321 8.26951 12.5199 7.69467 13.967 7.69467ZM13.967 9.87712C13.0987 9.87712 12.2661 10.222 11.6521 10.836C11.0382 11.4499 10.6933 12.2826 10.6933 13.1508C10.6933 14.019 11.0382 14.8517 11.6521 15.4657C12.2661 16.0796 13.0987 16.4245 13.967 16.4245C14.8352 16.4245 15.6679 16.0796 16.2818 15.4657C16.8957 14.8517 17.2407 14.019 17.2407 13.1508C17.2407 12.2826 16.8957 11.4499 16.2818 10.836C15.6679 10.222 14.8352 9.87712 13.967 9.87712Z" fill="white"/>
</svg>
