<svg width="43" height="41" viewBox="0 0 43 41" fill="none" xmlns="http://www.w3.org/2000/svg">
<g clip-path="url(#clip0_3601_1639)">
<circle cx="10.4467" cy="25.5204" r="9.62245" fill="#ED4C5C"/>
<path d="M14.8752 29.1021C14.9309 29.1576 14.9751 29.2236 15.0053 29.2962C15.0354 29.3689 15.0509 29.4468 15.0509 29.5254C15.0509 29.6041 15.0354 29.682 15.0053 29.7546C14.9751 29.8272 14.9309 29.8932 14.8752 29.9487C14.7625 30.0601 14.6104 30.1225 14.452 30.1225C14.2936 30.1225 14.1416 30.0601 14.0288 29.9487L10.8673 26.7863L7.70572 29.9487C7.59297 30.0601 7.44093 30.1225 7.28252 30.1225C7.1241 30.1225 6.97206 30.0601 6.85932 29.9487C6.80362 29.8932 6.75943 29.8272 6.72927 29.7546C6.69912 29.682 6.68359 29.6041 6.68359 29.5254C6.68359 29.4468 6.69912 29.3689 6.72927 29.2962C6.75943 29.2236 6.80362 29.1576 6.85932 29.1021L10.0209 25.9396L6.85932 22.7771C6.74708 22.6649 6.68402 22.5126 6.68402 22.3538C6.68402 22.2752 6.6995 22.1973 6.72958 22.1247C6.75966 22.0521 6.80374 21.9861 6.85932 21.9305C6.91489 21.8749 6.98087 21.8308 7.05348 21.8007C7.1261 21.7706 7.20392 21.7551 7.28252 21.7551C7.44125 21.7551 7.59348 21.8182 7.70572 21.9305L10.8673 25.093L14.0288 21.9305C14.1411 21.8182 14.2933 21.7551 14.452 21.7551C14.6107 21.7551 14.763 21.8182 14.8752 21.9305C14.9875 22.0427 15.0505 22.195 15.0505 22.3538C15.0505 22.5126 14.9875 22.6649 14.8752 22.7771L11.7137 25.9396L14.8752 29.1021Z" fill="white"/>
</g>
<defs>
<clipPath id="clip0_3601_1639">
<rect width="41.7441" height="41" fill="white" transform="translate(0.824219)"/>
</clipPath>
</defs>
</svg>
