<svg width="27" height="27" viewBox="0 0 27 27" fill="none" xmlns="http://www.w3.org/2000/svg">
<g clip-path="url(#clip0_117_1173)">
<path d="M26.5293 13.1506C26.5293 5.91862 20.6666 0.0559082 13.4346 0.0559082C6.20255 0.0559082 0.339844 5.91862 0.339844 13.1506C0.339844 19.6865 5.12837 25.1039 11.3885 26.0863V16.9358H8.06369V13.1506H11.3885V10.2657C11.3885 6.98384 13.3435 5.17104 16.3346 5.17104C17.7668 5.17104 19.2658 5.4268 19.2658 5.4268V8.64933H17.6147C15.9881 8.64933 15.4806 9.6588 15.4806 10.6954V13.1506H19.1124L18.5318 16.9358H15.4806V26.0863C21.7408 25.1039 26.5293 19.6865 26.5293 13.1506Z" fill="white"/>
</g>
<defs>
<clipPath id="clip0_117_1173">
<rect width="26.1895" height="26.1895" fill="white" transform="translate(0.339844 0.0559082)"/>
</clipPath>
</defs>
</svg>
